<svg width="158" height="46" viewBox="0 0 158 46" fill="none" xmlns="http://www.w3.org/2000/svg">
<rect width="158" height="46" rx="23" fill="white"/>
<path d="M15.7067 30V10.3636H23.4538C24.9432 10.3636 26.212 10.6481 27.2603 11.217C28.3086 11.7795 29.1076 12.5625 29.6573 13.5661C30.2134 14.5632 30.4915 15.7138 30.4915 17.0178C30.4915 18.3217 30.2102 19.4723 29.6477 20.4695C29.0852 21.4666 28.2702 22.2433 27.2028 22.7994C26.1417 23.3555 24.8569 23.6335 23.3484 23.6335H18.4105V20.3065H22.6772C23.4762 20.3065 24.1346 20.169 24.6523 19.8942C25.1765 19.6129 25.5664 19.2262 25.8221 18.734C26.0842 18.2354 26.2152 17.6634 26.2152 17.0178C26.2152 16.3658 26.0842 15.7969 25.8221 15.3111C25.5664 14.8189 25.1765 14.4386 24.6523 14.1701C24.1282 13.8952 23.4634 13.7578 22.658 13.7578H19.8583V30H15.7067ZM37.1959 10.3636V30H33.1114V10.3636H37.1959ZM44.6674 30.2781C43.7278 30.2781 42.8904 30.1151 42.1554 29.7891C41.4203 29.4567 40.8386 28.9677 40.4103 28.3221C39.9885 27.6701 39.7775 26.8583 39.7775 25.8867C39.7775 25.0685 39.9277 24.3814 40.2282 23.8253C40.5286 23.2692 40.9377 22.8217 41.4554 22.483C41.9732 22.1442 42.5613 21.8885 43.2196 21.7159C43.8844 21.5433 44.5811 21.4219 45.3098 21.3516C46.1664 21.2621 46.8567 21.179 47.3809 21.1023C47.905 21.0192 48.2853 20.8977 48.5218 20.7379C48.7583 20.5781 48.8766 20.3416 48.8766 20.0284V19.9709C48.8766 19.3636 48.6848 18.8938 48.3013 18.5614C47.9242 18.229 47.3873 18.0629 46.6905 18.0629C45.9554 18.0629 45.3706 18.2259 44.9359 18.5518C44.5012 18.8714 44.2136 19.2741 44.073 19.7599L40.2953 19.4531C40.487 18.5582 40.8642 17.7848 41.4267 17.1328C41.9892 16.4744 42.7147 15.9695 43.6032 15.6179C44.498 15.2599 45.5336 15.081 46.7097 15.081C47.5279 15.081 48.3109 15.1768 49.0588 15.3686C49.813 15.5604 50.481 15.8576 51.0627 16.2603C51.6507 16.663 52.1142 17.1808 52.4529 17.8136C52.7917 18.44 52.9611 19.1911 52.9611 20.0668V30H49.0875V27.9577H48.9725C48.736 28.418 48.4196 28.8239 48.0233 29.1754C47.627 29.5206 47.1507 29.7923 46.5946 29.9904C46.0385 30.1822 45.3961 30.2781 44.6674 30.2781ZM45.8372 27.4592C46.438 27.4592 46.9686 27.3409 47.4288 27.1044C47.889 26.8615 48.2502 26.5355 48.5123 26.1264C48.7743 25.7173 48.9054 25.2539 48.9054 24.7362V23.1733C48.7775 23.2564 48.6017 23.3331 48.378 23.4034C48.1607 23.4673 47.9146 23.5281 47.6397 23.5856C47.3649 23.6367 47.09 23.6847 46.8152 23.7294C46.5403 23.7678 46.291 23.8029 46.0673 23.8349C45.5879 23.9052 45.1692 24.017 44.8113 24.1705C44.4533 24.3239 44.1752 24.5316 43.9771 24.7937C43.7789 25.0494 43.6799 25.369 43.6799 25.7525C43.6799 26.3086 43.8812 26.7337 44.2839 27.0277C44.693 27.3153 45.2108 27.4592 45.8372 27.4592ZM60.2145 21.4858V30H56.13V15.2727H60.0227V17.8711H60.1953C60.5213 17.0146 61.0678 16.337 61.8349 15.8384C62.6019 15.3335 63.532 15.081 64.625 15.081C65.6477 15.081 66.5394 15.3047 67.3001 15.7521C68.0607 16.1996 68.652 16.8388 69.0739 17.6697C69.4957 18.4943 69.7067 19.4787 69.7067 20.6229V30H65.6222V21.3516C65.6286 20.4503 65.3984 19.7472 64.9318 19.2422C64.4652 18.7308 63.8228 18.4751 63.0046 18.4751C62.4549 18.4751 61.9691 18.5934 61.5472 18.8299C61.1317 19.0664 60.8058 19.4116 60.5692 19.8654C60.3391 20.3129 60.2209 20.853 60.2145 21.4858ZM73.0026 30V10.3636H77.0871V17.7464H77.2117C77.3907 17.3501 77.6496 16.9474 77.9884 16.5384C78.3335 16.1229 78.781 15.7777 79.3307 15.5028C79.8868 15.2216 80.5771 15.081 81.4017 15.081C82.4756 15.081 83.4664 15.3622 84.374 15.9247C85.2817 16.4808 86.0072 17.3214 86.5505 18.4464C87.0938 19.565 87.3655 20.968 87.3655 22.6555C87.3655 24.2983 87.1002 25.6854 86.5697 26.8168C86.0455 27.9418 85.3296 28.7951 84.422 29.3768C83.5207 29.9521 82.5107 30.2397 81.3921 30.2397C80.5995 30.2397 79.9252 30.1087 79.3691 29.8466C78.8193 29.5845 78.3687 29.2553 78.0171 28.859C77.6656 28.4563 77.3971 28.0504 77.2117 27.6413H77.0296V30H73.0026ZM77.0008 22.6364C77.0008 23.5121 77.1222 24.2759 77.3651 24.9279C77.608 25.5799 77.9596 26.0881 78.4198 26.4524C78.8801 26.8104 79.4394 26.9893 80.0977 26.9893C80.7625 26.9893 81.325 26.8072 81.7852 26.4428C82.2455 26.0721 82.5938 25.5607 82.8303 24.9087C83.0732 24.2504 83.1947 23.4929 83.1947 22.6364C83.1947 21.7862 83.0764 21.0384 82.8399 20.3928C82.6034 19.7472 82.2551 19.2422 81.7948 18.8778C81.3346 18.5135 80.7689 18.3313 80.0977 18.3313C79.433 18.3313 78.8705 18.5071 78.4102 18.8587C77.9564 19.2102 77.608 19.7088 77.3651 20.3544C77.1222 21 77.0008 21.7607 77.0008 22.6364ZM117.992 30L113.984 15.2727H118.117L120.399 25.1676H120.533L122.911 15.2727H126.967L129.383 25.1101H129.507L131.751 15.2727H135.874L131.876 30H127.551L125.02 20.7379H124.838L122.307 30H117.992Z" fill="#1E90FF"/>
<path d="M106.922 10.8477C106.922 10.6801 106.873 10.5162 106.78 10.3768C106.687 10.2373 106.554 10.1287 106.4 10.0645C106.245 10.0003 106.074 9.98357 105.91 10.0163C105.746 10.0491 105.595 10.1299 105.477 10.2486L102.092 13.6331C102.014 13.7119 101.951 13.8053 101.909 13.9081C101.866 14.0109 101.845 14.121 101.845 14.2322V18.9587L100.591 20.211C100.34 20.1444 100.077 20.1363 99.8229 20.1873C99.5684 20.2383 99.3291 20.3471 99.1232 20.5052C98.9174 20.6633 98.7506 20.8665 98.6357 21.0992C98.5208 21.3319 98.4608 21.5879 98.4605 21.8474C98.4606 22.0883 98.5121 22.3263 98.6116 22.5456C98.711 22.765 98.8562 22.9605 99.0373 23.1193C99.2184 23.278 99.4313 23.3963 99.6618 23.4662C99.8922 23.536 100.135 23.5559 100.374 23.5244C100.613 23.493 100.842 23.4109 101.046 23.2838C101.251 23.1566 101.426 22.9872 101.56 22.787C101.693 22.5867 101.783 22.3603 101.822 22.1226C101.862 21.885 101.85 21.6418 101.787 21.4091L103.041 20.1552H107.768C107.879 20.1554 107.989 20.1336 108.092 20.0912C108.195 20.0489 108.288 19.9866 108.367 19.9081L111.751 16.5235C111.87 16.4052 111.951 16.2543 111.984 16.09C112.016 15.9256 112 15.7553 111.936 15.6005C111.871 15.4457 111.763 15.3134 111.623 15.2205C111.484 15.1275 111.32 15.078 111.152 15.0783H106.922V10.8477ZM110.211 20.4564C110.503 22.5636 110.125 24.709 109.131 26.5898C108.137 28.4706 106.578 29.9918 104.673 30.9386C102.768 31.8855 100.614 32.2102 98.5149 31.8669C96.4156 31.5236 94.4772 30.5297 92.9732 29.0254C91.4692 27.5211 90.4757 25.5824 90.1328 23.483C89.7899 21.3836 90.115 19.2296 91.0622 17.3249C92.0095 15.4203 93.531 13.8612 95.4119 12.8679C97.2929 11.8745 99.4384 11.4969 101.545 11.7886L100.897 12.4367C100.661 12.6724 100.474 12.9523 100.346 13.2604C100.219 13.5684 100.153 13.8987 100.153 14.2322C98.6466 14.2322 97.1743 14.6788 95.922 15.5156C94.6697 16.3524 93.6936 17.5417 93.1172 18.9332C92.5409 20.3247 92.3901 21.8559 92.6839 23.3331C92.9777 24.8103 93.703 26.1672 94.768 27.2322C95.833 28.2972 97.1899 29.0225 98.6671 29.3163C100.144 29.6102 101.675 29.4594 103.067 28.883C104.458 28.3066 105.648 27.3306 106.484 26.0782C107.321 24.8259 107.768 23.3536 107.768 21.8474C108.441 21.8468 109.086 21.579 109.562 21.1028L110.211 20.4564ZM100.153 15.9245C98.9813 15.9245 97.8361 16.2718 96.8621 16.9227C95.8881 17.5735 95.129 18.4985 94.6807 19.5808C94.2324 20.6631 94.1151 21.854 94.3436 23.0029C94.5722 24.1519 95.1363 25.2073 95.9646 26.0356C96.7929 26.8639 97.8483 27.428 98.9972 27.6566C100.146 27.8851 101.337 27.7678 102.419 27.3195C103.502 26.8712 104.427 26.1121 105.077 25.1381C105.728 24.164 106.076 23.0189 106.076 21.8474H103.742L103.53 22.059C103.49 22.7091 103.262 23.3337 102.875 23.8577C102.489 24.3818 101.959 24.7831 101.349 25.0135C100.74 25.2438 100.077 25.2934 99.4405 25.1564C98.8037 25.0193 98.2199 24.7014 97.7593 24.2408C97.2987 23.7802 96.9808 23.1965 96.8438 22.5597C96.7067 21.9229 96.7564 21.26 96.9867 20.6507C97.2171 20.0414 97.6184 19.5115 98.1424 19.1246C98.6665 18.7378 99.2911 18.5103 99.9412 18.4697L100.153 18.2581V15.9245Z" fill="#1E90FF"/>
</svg>
