<svg width="338" height="315" viewBox="0 0 338 315" fill="none" xmlns="http://www.w3.org/2000/svg">
<ellipse cx="169" cy="157.5" rx="169" ry="157.5" fill="#FFFAFA"/>
<g filter="url(#filter0_d_0_4440)">
<path fill-rule="evenodd" clip-rule="evenodd" d="M93.9424 155.166V163.835L100.469 168.169L106.997 163.835V155.166L100.469 150.831L93.9424 155.166Z" fill="url(#paint0_linear_0_4440)"/>
<path fill-rule="evenodd" clip-rule="evenodd" d="M168.854 60L155.802 68.6691V86.0028L168.854 94.6719L181.906 86.0028V68.6691L168.854 60Z" fill="url(#paint1_linear_0_4440)"/>
<path fill-rule="evenodd" clip-rule="evenodd" d="M213.127 106.737V89.4013L200.075 80.7322L187.022 89.4013V106.737L200.075 115.406L213.127 106.737Z" fill="url(#paint2_linear_0_4440)"/>
<path fill-rule="evenodd" clip-rule="evenodd" d="M217.665 109.75V127.088L230.717 135.753L243.768 127.088V109.75L230.717 101.083L217.665 109.75Z" fill="url(#paint3_linear_0_4440)"/>
<path fill-rule="evenodd" clip-rule="evenodd" d="M217.665 150.831V168.169L230.717 176.834L243.768 168.169V150.831L230.717 142.162L217.665 150.831Z" fill="url(#paint4_linear_0_4440)"/>
<path fill-rule="evenodd" clip-rule="evenodd" d="M252.29 133.72V151.058L265.342 159.722L278.393 151.058V133.72L265.342 125.05L252.29 133.72Z" fill="url(#paint5_linear_0_4440)"/>
<path fill-rule="evenodd" clip-rule="evenodd" d="M252.29 172.75V190.088L265.342 198.753L278.393 190.088V172.75L265.342 164.081L252.29 172.75Z" fill="url(#paint6_linear_0_4440)"/>
<path d="M265.487 198.774L313.286 161.913L265.487 125.051L313.949 133.724L327.695 161.913L313.286 191.128L265.487 198.774Z" fill="#0496FF"/>
<path fill-rule="evenodd" clip-rule="evenodd" d="M210.026 146.535V133.319L200.076 126.712L190.125 133.319V146.535L200.076 153.144L210.026 146.535Z" fill="url(#paint7_linear_0_4440)"/>
<path fill-rule="evenodd" clip-rule="evenodd" d="M210.026 187.617V174.401L200.076 167.794L190.125 174.401V187.617L200.076 194.224L210.026 187.617Z" fill="url(#paint8_linear_0_4440)"/>
<path fill-rule="evenodd" clip-rule="evenodd" d="M142.306 145.114V134.741L134.494 129.554L126.685 134.741V145.114L134.494 150.301L142.306 145.114Z" fill="url(#paint9_linear_0_4440)"/>
<path fill-rule="evenodd" clip-rule="evenodd" d="M142.306 186.196V175.823L134.494 170.636L126.685 175.823V186.196L134.494 191.383L142.306 186.196Z" fill="url(#paint10_linear_0_4440)"/>
<path fill-rule="evenodd" clip-rule="evenodd" d="M217.665 191.914V209.25L230.717 217.919L243.768 209.25V191.914L230.717 183.245L217.665 191.914Z" fill="url(#paint11_linear_0_4440)"/>
<path fill-rule="evenodd" clip-rule="evenodd" d="M179.953 125.498V111.337L169.291 104.257L158.629 111.337V125.498L169.291 132.58L179.953 125.498Z" fill="url(#paint12_linear_0_4440)"/>
<path fill-rule="evenodd" clip-rule="evenodd" d="M179.953 207.663V193.501L169.291 186.42L158.629 193.501V207.663L169.291 214.743L179.953 207.663Z" fill="url(#paint13_linear_0_4440)"/>
<path fill-rule="evenodd" clip-rule="evenodd" d="M178.24 165.442V153.558L169.291 147.616L160.345 153.558V165.442L169.291 171.384L178.24 165.442Z" fill="url(#paint14_linear_0_4440)"/>
<path fill-rule="evenodd" clip-rule="evenodd" d="M213.127 229.598V212.262L200.075 203.593L187.022 212.262V229.598L200.075 238.267L213.127 229.598Z" fill="url(#paint15_linear_0_4440)"/>
<path fill-rule="evenodd" clip-rule="evenodd" d="M145.203 104.151V89.9306L134.495 82.8206L123.79 89.9306V104.151L134.495 111.261L145.203 104.151Z" fill="url(#paint16_linear_0_4440)"/>
<path fill-rule="evenodd" clip-rule="evenodd" d="M93.9424 108.117V116.159L99.9973 120.179L106.05 116.159V108.117L99.9973 104.096L93.9424 108.117Z" fill="url(#paint17_linear_0_4440)"/>
<path fill-rule="evenodd" clip-rule="evenodd" d="M181.906 250.331V232.995L168.854 224.326L155.802 232.995V250.331L168.854 259L181.906 250.331Z" fill="url(#paint18_linear_0_4440)"/>
<path fill-rule="evenodd" clip-rule="evenodd" d="M145.203 229.07V214.85L134.495 207.74L123.79 214.85V229.07L134.495 236.18L145.203 229.07Z" fill="url(#paint19_linear_0_4440)"/>
<path fill-rule="evenodd" clip-rule="evenodd" d="M93.9424 199.399V210.707L102.455 216.36L110.969 210.707V199.399L102.455 193.744L93.9424 199.399Z" fill="url(#paint20_linear_0_4440)"/>
<path d="M79.8658 121.773V149.923L60.4412 163.993L48.4924 155.333H48.4835L41.0166 149.923V121.773L60.4412 107.704L79.8658 121.773Z" fill="url(#paint21_linear_0_4440)"/>
<path d="M86.4037 168.076V185.654L74.2757 194.438L64.8188 187.588H64.8099L62.1387 185.654V168.076L74.2757 159.292L86.4037 168.076Z" fill="url(#paint22_linear_0_4440)"/>
<path d="M56.7333 165.41V174.745L33.8666 191.304L19.6053 180.97C19.5963 180.97 19.5963 180.958 19.5873 180.958L11 174.739V141.612L33.8666 125.057L38.1872 128.183V151.97L39.5945 152.994C39.6035 152.994 39.6124 153.005 39.6214 153.015L56.7333 165.41Z" fill="url(#paint23_linear_0_4440)"/>
<g style="mix-blend-mode:screen" opacity="0.4">
<g style="mix-blend-mode:screen" opacity="0.4">
<path d="M77.1769 123.719L43.7061 147.967V123.719L60.4415 111.595L77.1769 123.719Z" fill="white"/>
</g>
</g>
<g style="mix-blend-mode:screen" opacity="0.2">
<g style="mix-blend-mode:screen" opacity="0.2">
<path d="M83.6073 169.943L64.8281 183.544V170.021L74.276 163.183L83.6073 169.943Z" fill="white"/>
</g>
</g>
<g style="mix-blend-mode:screen" opacity="0.2">
<g style="mix-blend-mode:screen" opacity="0.2">
<path d="M35.4948 130.129V143.558L13.6895 159.364V143.569L33.867 128.948L35.4948 130.129Z" fill="white"/>
</g>
</g>
<g style="mix-blend-mode:multiply" opacity="0.3">
<g style="mix-blend-mode:multiply" opacity="0.3">
<path d="M56.7326 165.41V174.745L33.8659 191.304L19.6045 180.97C22.0785 182.453 24.5346 184.017 26.9727 185.592L30.63 187.988C31.7056 188.696 32.7723 189.416 33.839 190.147C33.848 190.134 33.8569 190.134 33.8659 190.123C35.6049 188.774 37.3439 187.424 39.1008 186.121C40.9832 184.702 42.8745 183.275 44.7749 181.891C46.6752 180.506 48.5666 179.091 50.4759 177.719L55.7107 173.985L55.8183 166.023L52.0625 163.121L47.8764 159.814C45.1065 157.599 42.3367 155.361 39.6207 153.009L56.7326 165.41Z" fill="black"/>
</g>
</g>
<g style="mix-blend-mode:multiply" opacity="0.3">
<g style="mix-blend-mode:multiply" opacity="0.3">
<path d="M79.8665 128.138V149.917L60.4419 163.986L48.4932 155.326C50.6086 156.496 52.6613 157.788 54.732 159.071L57.8066 161.04L60.4061 162.749C61.8582 161.602 63.3283 160.5 64.7984 159.375C66.385 158.149 68.0164 156.99 69.6209 155.799C71.2254 154.608 72.8568 153.448 74.4883 152.29C75.9494 151.231 77.4373 150.208 78.9253 149.197C78.9522 147.622 78.9881 146.035 79.0419 144.462C79.0867 142.65 79.1494 140.839 79.2301 139.019C79.3771 135.393 79.5743 131.76 79.8665 128.138Z" fill="black"/>
</g>
</g>
<g style="mix-blend-mode:multiply" opacity="0.3">
<g style="mix-blend-mode:multiply" opacity="0.3">
<path d="M86.4052 169.56V185.654L74.2771 194.438L64.8203 187.588C66.5324 188.432 68.1817 189.399 69.8311 190.377C70.6557 190.882 71.4804 191.367 72.2961 191.896L74.2323 193.133L76.796 191.132L79.8078 188.894C80.8117 188.129 81.8336 187.432 82.8465 186.712C83.707 186.094 84.5765 185.494 85.455 184.913C85.4819 183.822 85.4998 182.73 85.5626 181.629C85.6163 180.289 85.6612 178.952 85.7508 177.602C85.8942 174.925 86.1004 172.237 86.4052 169.56Z" fill="black"/>
</g>
</g>
<g style="mix-blend-mode:multiply" opacity="0.3">
<g style="mix-blend-mode:multiply" opacity="0.3">
<path d="M74.2757 159.292C73.3883 160.293 72.456 161.193 71.5148 162.081C70.5736 162.97 69.6145 163.813 68.6464 164.623C68.1624 165.05 67.6604 165.432 67.1763 165.826C66.6923 166.221 66.1903 166.636 65.6883 167.007C64.8637 167.636 64.03 168.254 63.1964 168.852C63.1785 169.885 63.1695 170.91 63.1247 171.944C63.0888 173.227 63.0351 174.519 62.9454 175.801C62.9096 176.454 62.8647 177.095 62.811 177.736C62.7572 178.377 62.7124 179.029 62.6406 179.671C62.4972 180.964 62.3628 182.246 62.1387 183.54V168.076L74.2757 159.292Z" fill="black"/>
</g>
</g>
<g style="mix-blend-mode:multiply" opacity="0.3">
<g style="mix-blend-mode:multiply" opacity="0.3">
<path d="M33.8666 125.062C32.0829 126.715 30.2542 128.256 28.4256 129.797C26.588 131.315 24.7325 132.821 22.8681 134.284C21.9358 135.025 20.9946 135.734 20.0534 136.455L17.2298 138.602C15.5088 139.861 13.7967 141.156 12.0577 142.392C12.0398 144.62 12.0488 146.845 11.995 149.073L11.9233 152.795L11.8067 156.519C11.7709 157.767 11.735 159.004 11.6723 160.24L11.502 163.964C11.3675 166.449 11.2241 168.935 11 171.42V141.617L33.8666 125.062Z" fill="black"/>
</g>
</g>
<g style="mix-blend-mode:multiply" opacity="0.3">
<g style="mix-blend-mode:multiply" opacity="0.3">
<path d="M60.4441 107.704C58.9561 109.153 57.4143 110.493 55.8636 111.83C54.3129 113.167 52.7443 114.44 51.1756 115.7C50.3868 116.341 49.58 116.937 48.7912 117.556C48.0023 118.174 47.2046 118.804 46.3889 119.389C44.9546 120.445 43.5204 121.526 42.0683 122.549C42.0504 124.236 42.0415 125.923 41.9877 127.61C41.9519 129.543 41.889 131.49 41.8083 133.436C41.7725 134.403 41.7277 135.382 41.6649 136.348C41.6022 137.314 41.5753 138.294 41.5036 139.272C41.3691 141.205 41.2257 143.152 41.0195 145.098V121.773L60.4441 107.704Z" fill="black"/>
</g>
</g>
</g>
<defs>
<filter id="filter0_d_0_4440" x="7" y="60" width="324.694" height="207" filterUnits="userSpaceOnUse" color-interpolation-filters="sRGB">
<feFlood flood-opacity="0" result="BackgroundImageFix"/>
<feColorMatrix in="SourceAlpha" type="matrix" values="0 0 0 0 0 0 0 0 0 0 0 0 0 0 0 0 0 0 127 0" result="hardAlpha"/>
<feOffset dy="4"/>
<feGaussianBlur stdDeviation="2"/>
<feComposite in2="hardAlpha" operator="out"/>
<feColorMatrix type="matrix" values="0 0 0 0 0 0 0 0 0 0 0 0 0 0 0 0 0 0 0.25 0"/>
<feBlend mode="normal" in2="BackgroundImageFix" result="effect1_dropShadow_0_4440"/>
<feBlend mode="normal" in="SourceGraphic" in2="effect1_dropShadow_0_4440" result="shape"/>
</filter>
<linearGradient id="paint0_linear_0_4440" x1="106.997" y1="168.169" x2="106.997" y2="150.831" gradientUnits="userSpaceOnUse">
<stop stop-color="#0496FF"/>
<stop offset="1" stop-color="#28B5E0"/>
</linearGradient>
<linearGradient id="paint1_linear_0_4440" x1="181.906" y1="94.6719" x2="181.906" y2="60" gradientUnits="userSpaceOnUse">
<stop stop-color="#0496FF"/>
<stop offset="1" stop-color="#28B5E0"/>
</linearGradient>
<linearGradient id="paint2_linear_0_4440" x1="213.127" y1="115.406" x2="213.127" y2="80.7322" gradientUnits="userSpaceOnUse">
<stop stop-color="#0496FF"/>
<stop offset="1" stop-color="#28B5E0"/>
</linearGradient>
<linearGradient id="paint3_linear_0_4440" x1="243.768" y1="135.753" x2="243.768" y2="101.083" gradientUnits="userSpaceOnUse">
<stop stop-color="#0496FF"/>
<stop offset="1" stop-color="#28B5E0"/>
</linearGradient>
<linearGradient id="paint4_linear_0_4440" x1="243.768" y1="176.834" x2="243.768" y2="142.162" gradientUnits="userSpaceOnUse">
<stop stop-color="#0496FF"/>
<stop offset="1" stop-color="#28B5E0"/>
</linearGradient>
<linearGradient id="paint5_linear_0_4440" x1="278.393" y1="159.722" x2="278.393" y2="125.05" gradientUnits="userSpaceOnUse">
<stop stop-color="#0496FF"/>
<stop offset="1" stop-color="#28B5E0"/>
</linearGradient>
<linearGradient id="paint6_linear_0_4440" x1="278.393" y1="198.753" x2="278.393" y2="164.081" gradientUnits="userSpaceOnUse">
<stop stop-color="#0496FF"/>
<stop offset="1" stop-color="#28B5E0"/>
</linearGradient>
<linearGradient id="paint7_linear_0_4440" x1="210.026" y1="153.144" x2="210.026" y2="126.712" gradientUnits="userSpaceOnUse">
<stop stop-color="#0496FF"/>
<stop offset="1" stop-color="#28B5E0"/>
</linearGradient>
<linearGradient id="paint8_linear_0_4440" x1="210.026" y1="194.224" x2="210.026" y2="167.794" gradientUnits="userSpaceOnUse">
<stop stop-color="#0496FF"/>
<stop offset="1" stop-color="#28B5E0"/>
</linearGradient>
<linearGradient id="paint9_linear_0_4440" x1="142.306" y1="150.301" x2="142.306" y2="129.554" gradientUnits="userSpaceOnUse">
<stop stop-color="#0496FF"/>
<stop offset="1" stop-color="#28B5E0"/>
</linearGradient>
<linearGradient id="paint10_linear_0_4440" x1="142.306" y1="191.383" x2="142.306" y2="170.636" gradientUnits="userSpaceOnUse">
<stop stop-color="#0496FF"/>
<stop offset="1" stop-color="#28B5E0"/>
</linearGradient>
<linearGradient id="paint11_linear_0_4440" x1="243.768" y1="217.919" x2="243.768" y2="183.245" gradientUnits="userSpaceOnUse">
<stop stop-color="#0496FF"/>
<stop offset="1" stop-color="#28B5E0"/>
</linearGradient>
<linearGradient id="paint12_linear_0_4440" x1="179.953" y1="132.58" x2="179.953" y2="104.257" gradientUnits="userSpaceOnUse">
<stop stop-color="#0496FF"/>
<stop offset="1" stop-color="#28B5E0"/>
</linearGradient>
<linearGradient id="paint13_linear_0_4440" x1="179.953" y1="214.743" x2="179.953" y2="186.42" gradientUnits="userSpaceOnUse">
<stop stop-color="#0496FF"/>
<stop offset="1" stop-color="#28B5E0"/>
</linearGradient>
<linearGradient id="paint14_linear_0_4440" x1="178.24" y1="171.384" x2="178.24" y2="147.616" gradientUnits="userSpaceOnUse">
<stop stop-color="#0496FF"/>
<stop offset="1" stop-color="#28B5E0"/>
</linearGradient>
<linearGradient id="paint15_linear_0_4440" x1="213.127" y1="238.267" x2="213.127" y2="203.593" gradientUnits="userSpaceOnUse">
<stop stop-color="#0496FF"/>
<stop offset="1" stop-color="#28B5E0"/>
</linearGradient>
<linearGradient id="paint16_linear_0_4440" x1="145.203" y1="111.261" x2="145.203" y2="82.8206" gradientUnits="userSpaceOnUse">
<stop stop-color="#0496FF"/>
<stop offset="1" stop-color="#28B5E0"/>
</linearGradient>
<linearGradient id="paint17_linear_0_4440" x1="106.05" y1="120.179" x2="106.05" y2="104.096" gradientUnits="userSpaceOnUse">
<stop stop-color="#0496FF"/>
<stop offset="1" stop-color="#28B5E0"/>
</linearGradient>
<linearGradient id="paint18_linear_0_4440" x1="181.906" y1="259" x2="181.906" y2="224.326" gradientUnits="userSpaceOnUse">
<stop stop-color="#0496FF"/>
<stop offset="1" stop-color="#28B5E0"/>
</linearGradient>
<linearGradient id="paint19_linear_0_4440" x1="145.203" y1="236.18" x2="145.203" y2="207.74" gradientUnits="userSpaceOnUse">
<stop stop-color="#0496FF"/>
<stop offset="1" stop-color="#28B5E0"/>
</linearGradient>
<linearGradient id="paint20_linear_0_4440" x1="110.969" y1="216.36" x2="110.969" y2="193.744" gradientUnits="userSpaceOnUse">
<stop stop-color="#0496FF"/>
<stop offset="1" stop-color="#28B5E0"/>
</linearGradient>
<linearGradient id="paint21_linear_0_4440" x1="60.4412" y1="109.674" x2="60.4412" y2="162.867" gradientUnits="userSpaceOnUse">
<stop stop-color="#00F3FF"/>
<stop offset="0.238" stop-color="#00EFFC"/>
<stop offset="0.44" stop-color="#00E5F4"/>
<stop offset="0.629" stop-color="#00D3E7"/>
<stop offset="0.81" stop-color="#00BAD4"/>
<stop offset="0.983" stop-color="#009BBC"/>
<stop offset="1" stop-color="#0098BA"/>
</linearGradient>
<linearGradient id="paint22_linear_0_4440" x1="74.2712" y1="160.838" x2="74.2712" y2="190.396" gradientUnits="userSpaceOnUse">
<stop stop-color="#3E6896"/>
<stop offset="0.247" stop-color="#355881"/>
<stop offset="0.75" stop-color="#1F324E"/>
<stop offset="1" stop-color="#131D32"/>
</linearGradient>
<linearGradient id="paint23_linear_0_4440" x1="23.851" y1="133.404" x2="48.8251" y2="176.939" gradientUnits="userSpaceOnUse">
<stop stop-color="#49A09D"/>
<stop offset="0.149" stop-color="#4A989B"/>
<stop offset="0.375" stop-color="#4E8396"/>
<stop offset="0.65" stop-color="#54618E"/>
<stop offset="0.96" stop-color="#5D3283"/>
<stop offset="1" stop-color="#5F2C82"/>
</linearGradient>
</defs>
</svg>
