<svg width="184" height="56" viewBox="0 0 184 56" fill="none" xmlns="http://www.w3.org/2000/svg">
<path d="M2.52841 35V5.90909H14.0057C16.2121 5.90909 18.0919 6.33049 19.6449 7.1733C21.1979 8.00663 22.3816 9.16667 23.196 10.6534C24.0199 12.1307 24.4318 13.8352 24.4318 15.767C24.4318 17.6989 24.0152 19.4034 23.1818 20.8807C22.3485 22.358 21.1411 23.5085 19.5597 24.3324C17.9877 25.1562 16.0843 25.5682 13.8494 25.5682H6.53409V20.6392H12.8551C14.0388 20.6392 15.0142 20.4356 15.7812 20.0284C16.5578 19.6117 17.1354 19.0388 17.5142 18.3097C17.9025 17.571 18.0966 16.7235 18.0966 15.767C18.0966 14.8011 17.9025 13.9583 17.5142 13.2386C17.1354 12.5095 16.5578 11.946 15.7812 11.5483C15.0047 11.1411 14.0199 10.9375 12.8267 10.9375H8.67898V35H2.52841ZM34.3643 5.90909V35H28.3132V5.90909H34.3643ZM45.4332 35.4119C44.0412 35.4119 42.8007 35.1705 41.7116 34.6875C40.6226 34.1951 39.7609 33.4706 39.1264 32.5142C38.5014 31.5483 38.1889 30.3456 38.1889 28.9062C38.1889 27.6941 38.4115 26.6761 38.8565 25.8523C39.3016 25.0284 39.9077 24.3655 40.6747 23.8636C41.4418 23.3617 42.313 22.983 43.2884 22.7273C44.2732 22.4716 45.3054 22.2917 46.3849 22.1875C47.6539 22.0549 48.6766 21.9318 49.4531 21.8182C50.2296 21.6951 50.7931 21.5152 51.1435 21.2784C51.4938 21.0417 51.669 20.6913 51.669 20.2273V20.142C51.669 19.2424 51.3849 18.5464 50.8168 18.054C50.258 17.5616 49.4626 17.3153 48.4304 17.3153C47.3414 17.3153 46.4749 17.5568 45.831 18.0398C45.187 18.5133 44.7609 19.1098 44.5526 19.8295L38.956 19.375C39.2401 18.0492 39.7988 16.9034 40.6321 15.9375C41.4654 14.9621 42.5402 14.214 43.8565 13.6932C45.1823 13.1629 46.7164 12.8977 48.4588 12.8977C49.6709 12.8977 50.831 13.0398 51.9389 13.3239C53.0563 13.608 54.0459 14.0483 54.9077 14.6449C55.7789 15.2415 56.4654 16.0085 56.9673 16.946C57.4692 17.8741 57.7202 18.9867 57.7202 20.2841V35H51.9815V31.9744H51.8111C51.4607 32.6562 50.992 33.2576 50.4048 33.7784C49.8177 34.2898 49.1122 34.6922 48.2884 34.9858C47.4645 35.2699 46.5128 35.4119 45.4332 35.4119ZM47.1662 31.2358C48.0563 31.2358 48.8423 31.0606 49.5241 30.7102C50.206 30.3504 50.741 29.8674 51.1293 29.2614C51.5175 28.6553 51.7116 27.9687 51.7116 27.2017V24.8864C51.5223 25.0095 51.2618 25.1231 50.9304 25.2273C50.6084 25.322 50.2438 25.4119 49.8366 25.4972C49.4295 25.5729 49.0223 25.6439 48.6151 25.7102C48.2079 25.767 47.8385 25.8191 47.5071 25.8665C46.7969 25.9706 46.1766 26.1364 45.6463 26.3636C45.116 26.5909 44.7041 26.8987 44.4105 27.2869C44.117 27.6657 43.9702 28.1392 43.9702 28.7074C43.9702 29.5312 44.2685 30.161 44.8651 30.5966C45.4711 31.0227 46.2382 31.2358 47.1662 31.2358ZM68.4659 22.3864V35H62.4148V13.1818H68.1818V17.0312H68.4375C68.9205 15.7623 69.7301 14.7585 70.8665 14.0199C72.0028 13.2718 73.3807 12.8977 75 12.8977C76.5152 12.8977 77.8362 13.2292 78.9631 13.892C80.09 14.5549 80.9659 15.5019 81.5909 16.733C82.2159 17.9545 82.5284 19.4129 82.5284 21.108V35H76.4773V22.1875C76.4867 20.8523 76.1458 19.8106 75.4545 19.0625C74.7633 18.3049 73.8116 17.9261 72.5994 17.9261C71.785 17.9261 71.0653 18.1013 70.4403 18.4517C69.8248 18.8021 69.3419 19.3134 68.9915 19.9858C68.6506 20.6487 68.4754 21.4489 68.4659 22.3864ZM87.4112 35V5.90909H93.4624V16.8466H93.647C93.9122 16.2595 94.2957 15.6629 94.7976 15.0568C95.3089 14.4413 95.9718 13.9299 96.7862 13.5227C97.6101 13.1061 98.6328 12.8977 99.8544 12.8977C101.445 12.8977 102.913 13.3144 104.258 14.1477C105.603 14.9716 106.677 16.2169 107.482 17.8835C108.287 19.5407 108.69 21.6193 108.69 24.1193C108.69 26.553 108.297 28.608 107.511 30.2841C106.734 31.9508 105.674 33.215 104.329 34.0767C102.994 34.929 101.497 35.3551 99.8402 35.3551C98.666 35.3551 97.6669 35.161 96.843 34.7727C96.0286 34.3845 95.361 33.8968 94.8402 33.3097C94.3194 32.7131 93.9216 32.1117 93.647 31.5057H93.3771V35H87.4112ZM93.3345 24.0909C93.3345 25.3883 93.5144 26.5199 93.8743 27.4858C94.2341 28.4517 94.755 29.2045 95.4368 29.7443C96.1186 30.2746 96.9472 30.5398 97.9226 30.5398C98.9074 30.5398 99.7408 30.2699 100.423 29.7301C101.104 29.1809 101.621 28.4233 101.971 27.4574C102.331 26.482 102.511 25.3598 102.511 24.0909C102.511 22.8314 102.335 21.7235 101.985 20.767C101.635 19.8106 101.119 19.0625 100.437 18.5227C99.755 17.983 98.9169 17.7131 97.9226 17.7131C96.9377 17.7131 96.1044 17.9735 95.4226 18.4943C94.7502 19.0152 94.2341 19.7538 93.8743 20.7102C93.5144 21.6667 93.3345 22.7936 93.3345 24.0909ZM154.062 35L148.125 13.1818H154.247L157.628 27.8409H157.827L161.349 13.1818H167.358L170.938 27.7557H171.122L174.446 13.1818H180.554L174.631 35H168.224L164.474 21.2784H164.205L160.455 35H154.062Z" fill="#1E90FF"/>
<path d="M138.202 7.22309C138.203 6.96412 138.126 6.71084 137.983 6.49537C137.839 6.27989 137.635 6.11192 137.395 6.01276C137.156 5.91359 136.893 5.88769 136.639 5.93834C136.385 5.98899 136.152 6.11391 135.969 6.29726L130.738 11.5279C130.617 11.6496 130.521 11.794 130.455 11.9528C130.39 12.1117 130.356 12.2819 130.356 12.4538V19.7584L128.418 21.6937C128.031 21.5909 127.625 21.5783 127.231 21.6572C126.838 21.736 126.468 21.904 126.15 22.1483C125.832 22.3927 125.574 22.7068 125.397 23.0664C125.219 23.426 125.126 23.8217 125.126 24.2228C125.126 24.595 125.206 24.9628 125.359 25.3018C125.513 25.6408 125.737 25.943 126.017 26.1883C126.297 26.4337 126.626 26.6164 126.982 26.7244C127.339 26.8324 127.714 26.8631 128.083 26.8145C128.452 26.7659 128.806 26.6391 129.122 26.4425C129.438 26.246 129.709 25.9842 129.915 25.6748C130.122 25.3653 130.261 25.0153 130.321 24.6481C130.382 24.2809 130.364 23.9049 130.267 23.5454L132.205 21.6074H139.51C139.682 21.6077 139.852 21.5742 140.011 21.5086C140.17 21.4431 140.314 21.3469 140.436 21.2256L145.666 15.9949C145.85 15.812 145.975 15.5788 146.025 15.3248C146.076 15.0709 146.05 14.8076 145.951 14.5684C145.852 14.3291 145.684 14.1247 145.468 13.9811C145.253 13.8374 145 13.761 144.741 13.7614H138.202V7.22309ZM143.286 22.073C143.736 25.3295 143.152 28.6451 141.617 31.5518C140.081 34.4585 137.671 36.8094 134.727 38.2728C131.783 39.7361 128.454 40.2379 125.21 39.7074C121.966 39.1768 118.97 37.6407 116.645 35.3159C114.321 32.9911 112.786 29.995 112.256 26.7505C111.726 23.506 112.228 20.177 113.692 17.2335C115.156 14.2899 117.507 11.8805 120.414 10.3452C123.321 8.81001 126.637 8.22655 129.893 8.67722L128.892 9.67889C128.527 10.0431 128.238 10.4757 128.04 10.9518C127.843 11.4279 127.741 11.9383 127.741 12.4538C125.413 12.4538 123.138 13.144 121.203 14.4372C119.267 15.7304 117.759 17.5685 116.868 19.719C115.977 21.8695 115.744 24.2358 116.198 26.5188C116.652 28.8017 117.773 30.8988 119.419 32.5447C121.065 34.1906 123.162 35.3115 125.445 35.7656C127.728 36.2197 130.094 35.9867 132.245 35.0959C134.395 34.2051 136.233 32.6967 137.527 30.7613C138.82 28.8259 139.51 26.5504 139.51 24.2228C140.55 24.2218 141.547 23.8079 142.282 23.072L143.286 22.073ZM127.741 15.0691C125.931 15.0691 124.161 15.6059 122.656 16.6118C121.15 17.6176 119.977 19.0472 119.284 20.7198C118.591 22.3924 118.41 24.2329 118.763 26.0086C119.117 27.7842 119.988 29.4152 121.269 30.6954C122.549 31.9755 124.18 32.8473 125.955 33.2005C127.731 33.5537 129.571 33.3725 131.244 32.6796C132.917 31.9868 134.346 30.8136 135.352 29.3083C136.358 27.803 136.895 26.0332 136.895 24.2228H133.288L132.961 24.5497C132.898 25.5544 132.547 26.5197 131.949 27.3296C131.351 28.1395 130.532 28.7597 129.591 29.1157C128.649 29.4717 127.625 29.5484 126.64 29.3366C125.656 29.1248 124.754 28.6335 124.042 27.9216C123.33 27.2098 122.839 26.3077 122.627 25.3235C122.416 24.3393 122.492 23.3149 122.848 22.3733C123.204 21.4316 123.824 20.6127 124.634 20.0148C125.444 19.4169 126.409 19.0654 127.414 19.0026L127.741 18.6756V15.0691Z" fill="#1E90FF"/>
</svg>
